<?xml version="1.0" encoding="UTF-8"?>
<svg id="Layer_1" xmlns="http://www.w3.org/2000/svg" version="1.1" xmlns:xlink="http://www.w3.org/1999/xlink" viewBox="0 0 200 60">
  <!-- Generator: Adobe Illustrator 29.0.0, SVG Export Plug-In . SVG Version: 2.1.0 Build 186)  -->
  <defs>
    <style>
      .st0, .st1, .st2 {
        fill: #058af1;
      }

      .st1 {
        font-size: 16.97px;
        letter-spacing: .1em;
      }

      .st1, .st2, .st3, .st4, .st5, .st6 {
        isolation: isolate;
      }

      .st1, .st2, .st3, .st5, .st6 {
        font-family: SVN-Androgyne, SVN-Androgyne;
      }

      .st7 {
        fill: url(#linear-gradient1);
      }

      .st2 {
        font-size: 17.91px;
      }

      .st3, .st5 {
        font-size: 23.55px;
      }

      .st3, .st5, .st6 {
        fill: #094067;
      }

      .st5 {
        letter-spacing: .1em;
      }

      .st6 {
        font-size: 24.87px;
      }

      .st8 {
        fill: url(#linear-gradient);
      }
    </style>
    <linearGradient id="linear-gradient" x1="69.1" y1="52.05" x2="73.65" y2="55.88" gradientTransform="translate(0 62) scale(1 -1)" gradientUnits="userSpaceOnUse">
      <stop offset=".06" stop-color="#094570"/>
      <stop offset=".3" stop-color="#094067"/>
      <stop offset=".31" stop-color="#094067"/>
      <stop offset=".46" stop-color="#094067"/>
      <stop offset=".53" stop-color="#094067"/>
      <stop offset="1" stop-color="#094067"/>
    </linearGradient>
    <linearGradient id="linear-gradient1" x1="30.83" y1="24.86" x2="69.56" y2="57.37" gradientTransform="translate(0 62) scale(1 -1)" gradientUnits="userSpaceOnUse">
      <stop offset="0" stop-color="#058af1"/>
      <stop offset=".04" stop-color="#0581e0"/>
      <stop offset=".11" stop-color="#066ab6"/>
      <stop offset=".18" stop-color="#085288"/>
      <stop offset=".3" stop-color="#094067"/>
      <stop offset=".31" stop-color="#094067"/>
      <stop offset=".46" stop-color="#094067"/>
      <stop offset=".53" stop-color="#094067"/>
      <stop offset="1" stop-color="#094067"/>
    </linearGradient>
  </defs>
  <g>
    <g class="st4">
      <text class="st5" transform="translate(144.14 29.88)"><tspan x="0" y="0">TE</tspan></text>
      <text class="st3" transform="translate(169.54 29.88)"><tspan x="0" y="0">CH</tspan></text>
    </g>
    <g class="st4">
      <text class="st6" transform="translate(81.7 29.88)"><tspan x="0" y="0">NOVA</tspan></text>
    </g>
  </g>
  <g>
    <g class="st4">
      <text class="st2" transform="translate(119.06 51.8)"><tspan x="0" y="0">ONLINE</tspan></text>
    </g>
    <g class="st4">
      <text class="st1" transform="translate(81.7 51.29)"><tspan x="0" y="0">BUY</tspan></text>
    </g>
  </g>
  <path class="st0" d="M76.08,14.19l-17.88,26.57c-.04.06-.08.11-.13.16l-.83,1.24h0l-2.1,3.13-.53.78s-.02.02-.02.03l-4.24,6.31s-.02.03-.03.05l-.03.05c-.1.15-.22.3-.33.45-.05.05-.09.1-.13.16-.11.14-.24.28-.36.41-.03.02-.05.05-.07.07-.16.16-.33.31-.5.46-.02.02-.05.04-.07.06-.19.15-.38.3-.58.44h0c-.14.1-.29.19-.44.28-.04.02-.07.04-.11.06-.11.06-.23.13-.35.18-.05.03-.1.05-.15.07-.1.05-.21.09-.32.14-.06.02-.11.05-.17.07-.15.06-.29.1-.44.15-.09.03-.19.05-.28.08-.06.02-.13.03-.19.05-.09.02-.19.05-.29.06-.07.01-.14.02-.21.04-.09.02-.18.03-.28.04-.08,0-.16.02-.24.03-.08,0-.16.02-.24.02-.14.01-.27.02-.42.02h-.15c-.14,0-.27,0-.41-.02-.08,0-.17-.01-.25-.02-.08-.01-.16-.02-.24-.03-.09-.02-.19-.03-.28-.05-.07-.01-.13-.02-.2-.03-.1-.02-.19-.04-.29-.06-.06-.02-.13-.03-.19-.05-.1-.03-.19-.05-.29-.08-.15-.05-.29-.09-.44-.15-.06-.02-.12-.05-.18-.07-.1-.04-.21-.09-.31-.13-.05-.03-.1-.05-.15-.07-.11-.06-.23-.11-.35-.18-.03-.02-.07-.04-.1-.06-.15-.09-.3-.18-.44-.27h0c-.19-.14-.39-.29-.58-.44-.03-.02-.05-.04-.07-.06-.17-.15-.34-.3-.5-.46-.02-.02-.05-.05-.07-.07-.13-.13-.25-.27-.37-.41-.04-.05-.09-.1-.13-.16-.11-.14-.23-.29-.33-.45l-.04-.05s-.02-.03-.03-.05l-11.54-17.15-5.14,7.65c-.07.1-.14.21-.22.3l-3.29,4.89c-.46.69-1.4.88-2.09.41-.68-.46-.87-1.39-.42-2.07l8.82-13.11c.46-.69.28-1.63-.41-2.1-.26-.17-.55-.26-.84-.26-.45,0-.89.21-1.19.58L4.78,56.22s-.03.03-.05.05c-.48.65-1.38.81-2.05.36-.69-.46-.88-1.4-.41-2.09l7.09-10.55h0s4.85-7.22,4.85-7.22c.46-.69.28-1.63-.41-2.09-.26-.17-.55-.26-.84-.26-.49,0-.97.23-1.26.67l-4.09,6.07-3.25,4.83c-.46.69-1.4.88-2.09.41-.69-.47-.88-1.4-.41-2.1l15.56-23.13h0l2.31-3.45c.04-.06.08-.11.13-.16l.03-.05s.06-.08.09-.12c.11-.15.22-.31.34-.46.06-.08.13-.15.19-.22.1-.11.19-.22.3-.33.1-.1.21-.19.31-.29.07-.07.15-.14.23-.2.15-.12.3-.23.45-.34.05-.03.09-.07.13-.1,0,0,.02,0,.02-.02.17-.11.34-.21.5-.3.05-.03.1-.06.15-.09.14-.07.28-.14.43-.2.09-.04.17-.09.26-.12.05-.02.1-.03.15-.05.78-.3,1.6-.46,2.42-.49.09,0,.18-.02.28-.02.05,0,.09,0,.14,0,.89.02,1.78.19,2.63.53.02,0,.04.01.06.02.1.04.2.09.3.14.13.06.26.11.39.18.06.03.11.07.17.1.17.09.33.19.49.29.01,0,.02,0,.03.02.05.03.09.07.14.1.15.1.29.22.44.33.09.07.15.14.23.21.1.09.21.19.31.29.1.1.21.22.3.33.06.07.13.14.19.22.13.15.23.3.34.46.03.04.06.08.09.12l.04.05s.02.03.03.05l1.28,1.91,2.02,3.01.02.02h0l.05.08.11.18c.05.07.11.17.18.28l7.86,11.68.54-.8,3.02-4.49s.03-.07.06-.1L65.51,2.79c.46-.69,1.4-.88,2.09-.41s.88,1.4.41,2.09l-6.53,9.7h.01l-11.05,16.43c-.46.69-.28,1.63.41,2.09.26.17.55.26.84.26.49,0,.96-.23,1.25-.67l11.82-17.57h0l.18-.26c.46-.69,1.4-.88,2.09-.41.69.46.88,1.4.41,2.09l-.18.26h0l-7.24,10.76c-.47.69-.28,1.63.41,2.09.26.17.55.26.84.26.49,0,.96-.23,1.25-.66l6.47-9.62h0s4.55-6.75,4.55-6.75c.46-.69,1.4-.88,2.09-.41.69.46.88,1.4.41,2.09h0Z"/>
  <g>
    <path class="st8" d="M73.73,6.82c0,.27-.09.56-.25.8l-1.7,2.53c-.17.25-.39.43-.65.54-.19.08-.39.13-.61.13-.29,0-.58-.08-.84-.26-.69-.46-.88-1.4-.41-2.09l1.7-2.54c.47-.69,1.4-.88,2.1-.41.45.3.68.8.66,1.29h0Z"/>
    <path class="st7" d="M75.66,12.09c-.69-.47-1.63-.28-2.09.41l-4.55,6.76h0s-6.47,9.61-6.47,9.61c-.29.43-.77.66-1.25.66-.29,0-.58-.08-.84-.26-.69-.46-.88-1.4-.41-2.09l7.24-10.76h0l.18-.26c.46-.69.28-1.63-.41-2.09-.69-.47-1.63-.28-2.09.41l-.18.26h0l-11.82,17.57c-.29.44-.77.67-1.25.67-.29,0-.58-.08-.84-.26-.69-.46-.88-1.4-.41-2.09l11.05-16.43h-.01l6.53-9.7c.46-.69.28-1.63-.41-2.09s-1.63-.28-2.09.41l-17.87,26.57s-.04.07-.06.1l-3.02,4.49-.54.8-7.86-11.68c-.07-.11-.13-.21-.18-.28s-.09-.14-.11-.18l-.05-.08h0s-.01-.02-.01-.02h0l-2.02-3-1.28-1.91s-.02-.03-.03-.05l-.04-.05s-.06-.08-.09-.12c-.11-.15-.22-.31-.34-.46-.06-.07-.13-.14-.19-.22-.1-.11-.19-.22-.3-.33-.1-.1-.21-.19-.31-.29-.08-.07-.15-.14-.23-.21-.14-.11-.29-.22-.44-.33-.05-.03-.09-.07-.14-.1,0,0-.02-.01-.03-.02-.16-.1-.32-.2-.49-.29-.06-.03-.11-.07-.17-.1-.13-.07-.26-.13-.39-.18-.1-.05-.2-.1-.3-.14-.02,0-.04-.01-.06-.02-.85-.34-1.75-.51-2.63-.53-.05,0-.1,0-.14,0-.09,0-.19.01-.28.02-.81.03-1.63.19-2.42.49-.05.02-.1.03-.15.05-.09.03-.17.08-.26.12-.14.06-.29.13-.43.2-.05.03-.1.06-.15.09-.17.1-.34.19-.5.3,0,0-.02.01-.02.02-.05.03-.09.06-.13.1-.15.1-.3.22-.45.34-.08.06-.15.13-.23.2-.1.09-.22.19-.31.29-.1.1-.2.22-.3.33-.06.07-.13.14-.19.22-.12.15-.23.3-.34.46-.03.04-.06.08-.09.12l-.03.05c-.05.05-.09.1-.13.16l-2.31,3.44c.18-.15,5.88-5.07,12.27,5.21.43.66.84,1.3,1.22,1.9.21.32.41.64.61.94,3.54,5.51,5.5,8.51,6.5,10.05l.11.16c.23.36.41.64.54.84l.28.42.02.04h0l3.3,4.91s.02.03.03.05l.04.05s.06.08.09.12c.11.15.22.31.34.46.06.07.13.14.19.22.1.11.19.22.3.33.1.1.21.19.31.29.08.07.15.14.23.21.14.11.29.22.44.33.05.03.09.07.14.1,0,0,.02.01.03.02.16.1.32.2.49.29.06.03.11.07.17.1.13.07.26.13.39.18.1.05.2.1.3.14.02,0,.04.01.06.02.85.34,1.75.51,2.63.53.05,0,.1,0,.14,0,.09,0,.19-.01.28-.02.81-.03,1.63-.19,2.42-.49.05-.02.1-.03.15-.05.09-.03.17-.08.26-.12.14-.06.29-.13.43-.2.05-.03.1-.06.15-.09.17-.1.34-.19.5-.3,0,0,.02-.01.02-.02.05-.03.09-.06.13-.1.15-.1.3-.22.45-.34.08-.06.15-.13.23-.2.1-.09.22-.19.31-.29.1-.1.2-.22.3-.33.06-.07.13-.14.19-.22.05-.06.1-.13.16-.2,0,0,.01-.02.02-.03.06-.07.11-.15.17-.23.03-.04.06-.08.09-.12l.03-.05c.05-.05.09-.1.13-.16l.15-.23,2.16-3.21s-.04.03-.09.07l.83-1.24c.05-.05.09-.1.13-.16l17.88-26.57c.46-.69.28-1.63-.41-2.09h-.02Z"/>
  </g>
</svg>